<?xml version="1.0" encoding="utf-8"?>
<svg version="1.1" id="layer" xmlns="http://www.w3.org/2000/svg" xmlns:xlink="http://www.w3.org/1999/xlink" x="0px" y="0px" viewBox="-20 150 700 350" style="enable-background:new 0 0 652 326;" xml:space="preserve"> <style type="text/css"> .st0{fill:#FFFFFF;} .st1{fill:#007E7A;} .st2{fill:#6E645F;} </style> <polygon class="st0" points="57,298 57,366.1 75.6,366.1 75.6,339.4 96.9,339.4 96.9,366.1 113.8,366.1 115.6,365 115.6,297 97,297 97,323.6 75.6,323.6 75.6,297 58.1,297 "/> <g> <path class="st0" d="M149.3,291c0-3.9-3.1-6.3-7.1-6.3c-3.6,0-6.3,2.4-7.1,3.3l0.8-3.1h-6.8l-5.5,24.2h6.8l1.6-6.9 c0.9-3.6,2.4-11.7,7.3-11.7c1.7,0,2.8,1,2.8,2.7c0,1.5-0.4,3.1-0.7,4.6l-2.5,11.3h6.8l2.5-11C148.7,295.7,149.3,293.4,149.3,291"/> <path class="st1" d="M113.8,366.1C96,377.7,77.3,384,61.8,384C37.3,384,26,370.5,26,354c0-17.1,11.4-38.3,30.9-56v68.1h18.7v-26.7 H97v26.7H113.8z M149.3,291c0-3.9-3.1-6.3-7.1-6.3c-3.6,0-6.3,2.4-7.1,3.3l0.8-3.2h-6.8l-5.5,24.2h6.8l1.6-6.9 c0.9-3.6,2.4-11.7,7.3-11.7c1.7,0,2.8,1,2.8,2.7c0,1.5-0.4,3.1-0.7,4.6l-2.5,11.3h6.8l2.5-11C148.7,295.7,149.3,293.4,149.3,291 M161.8,297c0,19.9-15.4,45.4-41.3,64.5c-1.6,1.2-3.2,2.3-4.9,3.4v-68H97v26.6H75.6V297H58.1c2.9-2.6,6-5.1,9.2-7.5 C87,275,108.7,267,126.2,267C152.9,267,161.8,282.7,161.8,297"/> </g> <polygon class="st2" points="225.3,297.8 225.3,327 199.9,327 199.9,297.8 189.5,297.8 189.5,367.6 199.9,367.6 199.9,336 225.3,336 225.3,367.6 235.7,367.6 235.7,297.8 "/> <g> <path class="st2" d="M267.6,326.5c8.7,0,11.2,8.7,10.7,13.7v0.1h-22.2C256.4,335.2,259.1,326.5,267.6,326.5 M246,343.3 c0,14.4,8.1,25.4,26.1,25.4c5.9,0,10.4-1.1,12.9-2v-7.9c-2.7,0.9-6.6,2.2-11.5,2.2c-12.6,0-16.7-8.1-17.2-14h31.1 c0.3-1.6,0.7-5.3,0.7-7.2c0-12.3-8.2-20.9-20.3-20.9C256.4,318.9,246,327.1,246,343.3"/> <path class="st2" d="M549.2,326.5c8.7,0,11.2,8.7,10.7,13.7v0.1h-22.2C537.9,335.2,540.6,326.5,549.2,326.5 M527.6,343.3 c0,14.4,8.1,25.4,26.1,25.4c5.9,0,10.4-1.1,12.9-2c0,0,0-6.5,0-7.9c-2.7,0.9-6.6,2.2-11.5,2.2c-12.6,0-16.7-8.1-17.2-14H569 c0.3-1.6,0.7-5.3,0.7-7.2c0-12.3-8.2-20.9-20.3-20.9C538,318.9,527.6,327.1,527.6,343.3"/> <path class="st2" d="M305.3,354c0-5.9,5.4-10.3,19.5-10v16.7c-1.7,0.2-4.6,0.6-7.8,0.6C305.4,361.3,305.3,355.7,305.3,354 M299.6,323.1c0,1.5,0.1,6.4,0,8.3c3-2,9.1-4.8,15.9-4.8c9.6,0,9.3,6.2,9.3,9v1.8c-18.8-0.2-29.5,5.9-29.5,16.8 c0,7.8,5.7,14.5,21.5,14.5c7,0,15.8-1.3,18.1-2.1v-32.4c0-6.6-2.3-15.3-18.1-15.3C309.1,318.9,302.9,321.4,299.6,323.1"/> <polygon class="st2" points="358.1,297.8 348.3,297.8 348.3,367.6 358.5,367.6 358.5,297.8 "/> <path class="st2" d="M579.9,311.4v40.2c0,11.5,4.2,16.8,15.8,16.8c3.2,0,7.4-0.7,8.4-0.9c0-1-0.1-6.1,0-8.1c-2.2,0.5-5,1-6.6,1 h-0.1c-6.3,0-7.4-3.9-7.4-8.3v-24h13.2v-8H590v-14.8L579.9,311.4z"/> <path class="st2" d="M372,311.8V352c0,11.5,4.2,16.8,15.8,16.8c3.2,0,7.4-0.7,8.4-0.9c0-1-0.1-6.1,0-8.1c-2.2,0.5-5,1-6.6,1h-0.1 c-6.3,0-7.5-3.9-7.5-8.3v-24h13.2v-8h-13.2v-14.8L372,311.8z"/> <polygon class="st2" points="507.2,297.8 507.2,351.8 484,297.8 471.2,297.8 471.2,367.6 481.4,367.6 481.4,314.2 504.5,367.6 517.4,367.6 517.4,297.8 "/> <path class="st2" d="M405.2,297.8v69.8h10v-28.5c0-7.6,5.6-11.4,10.4-11.4c5.4,0,10.4,3.6,10.4,11.4v28.5h10.1V338 c0-10.6-6.7-19.1-17.7-19.1c-6.9,0-11.6,4-13.1,5.4v-26.4H405.2z"/> <path class="st2" d="M612.4,312.4c0-3.7,2.5-6.2,5.7-6.2c3.2,0,5.7,2.5,5.7,6.2c0,3.7-2.5,6.2-5.7,6.2 C614.8,318.6,612.4,316.1,612.4,312.4 M610,312.4c0,4.4,3.6,8,8,8c4.4,0,8-3.6,8-8c0-4.4-3.6-8-8-8C613.6,304.4,610,308,610,312.4 M614.8,316.8h1.9V313h0.9l2.1,3.8h1.9l-2.3-3.9c1.4-0.1,2.3-0.8,2.3-2.4c0-2-1.3-2.7-3.5-2.7h-3.3V316.8z M616.7,311.6v-2.2h1.4 c0.8,0,1.7,0.1,1.7,1c0,1-0.6,1.2-1.5,1.2H616.7z"/> </g> </svg>