<?xml version="1.0" encoding="utf-8"?>
<svg xmlns="http://www.w3.org/2000/svg" xmlns:xlink="http://www.w3.org/1999/xlink"
	 viewBox="0 220 1000 500" xml:space="preserve">
<path fill="#025CAA" d="M47.661,381.422c46.695,1.877,103.501-9.095,129.441,33.081c2.702,4.424,10.357,19.086,14.731,28.612
	c14.323,31.18,26.402,65.532,57.701,85.996c-32.572,3.614-73.269,4.521-99.973-17.645
	c-43.771-38.461-35.235-115.443-101.638-129.405C46.413,381.744,46.187,381.367,47.661,381.422"/>
<path fill="#025CAA" d="M279.836,426.889c17.651,34.832,26.685,73.721,60.607,102.228c-31.209,3.607-70.561,4.515-95.439-17.656
	c-37.987-39.337-39.794-98.146-86.837-130.25C207.017,377.128,255.422,382.559,279.836,426.889"/>
<path fill="#025CAA" d="M474.503,423.889c-5.526,0.473-8.989,4.253-10.886,10.081l-31.516,94.885h-4.263l-26.472-73.751h-1.104
	l-28.687,73.751h-4.404l-33.418-94.885c-2.677-7.564-4.248-9.134-10.866-10.081v-3.935h46.322v3.935
	c-5.661,0.473-10.08,0.786-10.08,6.613c0,1.737,0.478,3.468,1.113,5.205l18.736,56.896h0.333l18.42-48.074l-5.496-15.119
	c-2.059-3.483-3.791-5.208-11.36-5.521v-3.935h49.182v3.935c-6.779,0.473-11.355,0.634-11.355,5.994
	c0,1.879,1.263,5.663,2.209,8.663l16.854,52.477h0.313l17.5-53.57c0.478-1.594,1.117-3.332,1.117-6.628
	c0-6.463-5.526-6.623-10.886-6.936v-3.935h28.692V423.889z"/>
<path fill="#025CAA" d="M501.813,482.048c-0.161-4.897-0.161-13.084-1.415-17.812c-0.947-3.473-2.995-7.408-8.506-7.408
	c-5.842,0-11.208,3.473-11.208,25.219H501.813z M521.983,508.984c-9.613,14.672-18.597,19.698-31.203,19.698
	c-15.919,0-31.99-11.656-31.99-38.606c0-23.327,14.333-38.135,32.467-38.135c27.419,0,29.468,27.429,29.939,35.93h-39.719
	c0.475,13.387,3.936,29.473,18.919,29.473c9.28,0,14.806-6.936,17.806-10.55L521.983,508.984z"/>
<path fill="#025CAA" d="M562.639,526.479h-37.66v-3.78c6.301,0,8.032-5.668,8.032-9.451v-80.375c0-1.735-0.312-9.15-8.032-9.15
	v-3.774h29.944v93.299c0,4.564,1.581,9.451,7.716,9.451V526.479z"/>
<path fill="#025CAA" d="M606.45,526.479h-37.661v-3.78c6.297,0,8.032-5.668,8.032-9.451v-80.375c0-1.735-0.316-9.15-8.032-9.15
	v-3.774h29.93v93.299c0,4.564,1.581,9.451,7.731,9.451V526.479z"/>
<path fill="#025CAA" d="M712.452,506.474c-11.505,13.081-23.78,23.01-43.968,23.01c-36.744,0-56.618-25.849-56.618-55.321
	c0-31.999,22.718-56.584,55.84-56.584c14.172,0,26.301,7.735,30.412,7.735c4.238,0,5.668-3.311,7.243-7.262h4.262v36.886h-3.95
	c-5.521-13.714-18.741-32.15-36.719-32.15c-23.007,0-29.161,24.113-29.161,50.742c0,9.461,0.941,24.595,6.789,34.675
	c6.619,11.351,19.063,13.704,23.946,13.704c12.3,0,24.122-4.726,37.203-19.385L712.452,506.474z"/>
<path fill="#025CAA" d="M757.048,487.872c-3.627,0.785-19.24,5.35-19.24,19.074c0,4.882,2.376,10.56,8.054,10.56
	c5.359,0,8.974-4.258,11.187-6.774V487.872z M787.775,519.706c-4.42,5.203-10.244,8.977-17.334,8.977
	c-11.047,0-12.295-6.607-13.231-11.021c-10.257,10.242-21.279,11.021-25.068,11.021c-7.56,0-17.323-4.875-17.323-16.854
	c0-16.396,19.996-22.698,42.392-29.472v-11.505c0-8.048-2.22-13.861-13.881-13.861c-5.676,0-9.301,3.145-9.301,5.672
	c0,3.307,4.731,4.56,4.731,10.709c0,2.839-2.356,8.828-10.564,8.828c-1.897,0-10.403,0-10.403-10.714
	c0-9.931,9.931-19.543,29.482-19.543c17.484,0,31.522,6.769,31.522,21.587v41.143c0,0.938,0,3.931,3.457,3.931
	c0.634,0,1.102-0.151,1.579-0.629l1.571-1.576L787.775,519.706z"/>
<path fill="#025CAA" d="M833.794,526.479h-41.922v-3.78c5.042-0.94,8.51-1.569,8.51-9.451v-46.334c0-7.88-3.779-8.671-8.51-9.305
	v-3.774h29.788v12.445h0.313c3.306-4.887,10.402-14.333,20.645-14.333c10.714,0,13.086,8.501,13.086,12.285
	c0,4.092-2.205,10.56-10.098,10.56c-9.14,0-8.974-9.295-14.011-9.295c-2.366,0-9.316,3.461-9.316,14.967v29.784
	c0,9.607,1.897,11.983,11.515,12.451V526.479z"/>
<path fill="#025CAA" d="M899.062,482.048c-0.151-4.897-0.151-13.084-1.419-17.812c-0.952-3.473-2.99-7.408-8.517-7.408
	c-5.822,0-11.179,3.473-11.179,25.219H899.062z M919.232,508.984c-9.612,14.672-18.592,19.698-31.203,19.698
	c-15.929,0-31.999-11.656-31.999-38.606c0-23.327,14.358-38.135,32.462-38.135c27.439,0,29.468,27.429,29.96,35.93h-39.724
	c0.473,13.387,3.935,29.473,18.914,29.473c9.3,0,14.816-6.936,17.812-10.55L919.232,508.984z"/>
<path fill="#025CAA" d="M923.834,448.923h1.922c0.925,0,1.551-0.142,1.887-0.413c0.338-0.268,0.504-0.636,0.504-1.083
	c0-0.296-0.086-0.554-0.248-0.78c-0.154-0.231-0.381-0.408-0.669-0.512c-0.291-0.122-0.82-0.172-1.596-0.172h-1.8V448.923z
	 M922.248,454.455v-9.831h3.376c1.158,0,1.988,0.086,2.513,0.278c0.513,0.182,0.925,0.498,1.228,0.947
	c0.307,0.458,0.468,0.936,0.468,1.444c0,0.719-0.261,1.338-0.78,1.877c-0.513,0.528-1.193,0.831-2.038,0.896
	c0.338,0.146,0.619,0.318,0.82,0.519c0.393,0.388,0.89,1.037,1.454,1.952l1.198,1.919h-1.938l-0.866-1.551
	c-0.685-1.208-1.238-1.974-1.656-2.28c-0.286-0.227-0.709-0.343-1.272-0.348h-0.92v4.178H922.248z M926.243,441.782
	c-1.283,0-2.531,0.331-3.739,0.985c-1.213,0.661-2.163,1.606-2.854,2.824c-0.684,1.228-1.026,2.496-1.026,3.821
	c0,1.313,0.337,2.577,1.012,3.789c0.669,1.198,1.615,2.145,2.823,2.814c1.208,0.681,2.471,1.007,3.784,1.007
	c1.319,0,2.577-0.326,3.79-1.007c1.208-0.669,2.144-1.616,2.819-2.814c0.664-1.211,1.002-2.476,1.002-3.789
	c0-1.325-0.349-2.593-1.022-3.821c-0.686-1.218-1.631-2.163-2.854-2.824C928.766,442.113,927.518,441.782,926.243,441.782
	 M926.243,440.271c1.536,0,3.025,0.398,4.484,1.188c1.464,0.785,2.598,1.907,3.418,3.371c0.81,1.461,1.218,2.995,1.218,4.581
	c0,1.57-0.402,3.08-1.203,4.539c-0.806,1.449-1.927,2.578-3.376,3.378c-1.451,0.811-2.96,1.203-4.541,1.203
	c-1.574,0-3.085-0.393-4.534-1.203c-1.449-0.8-2.576-1.929-3.387-3.378c-0.795-1.459-1.203-2.969-1.203-4.539
	c0-1.586,0.408-3.12,1.224-4.581c0.82-1.464,1.956-2.586,3.423-3.371C923.22,440.668,924.714,440.271,926.243,440.271"/>
</svg>
